<?xml version="1.0" encoding="utf-8"?>
<!-- Generator: Adobe Illustrator 28.0.0, SVG Export Plug-In . SVG Version: 6.00 Build 0)  -->
<svg version="1.1" id="Layer_1" xmlns="http://www.w3.org/2000/svg" xmlns:xlink="http://www.w3.org/1999/xlink" x="0px" y="0px"
	 viewBox="0 0 167 123" style="enable-background:new 0 0 167 123;" xml:space="preserve">
<style type="text/css">
	.st0{fill:#FFFFFF;stroke:#47303E;stroke-miterlimit:10;}
	.st1{fill:#E60581;stroke:#FFFFFF;stroke-miterlimit:10;}
	.st2{fill:#E5E516;}
</style>
<g>
	<path class="st0" d="M149.3,121.84H17.06c-9.35,0-17-7.65-17-17V18.06c0-5.42,2.57-10.27,6.55-13.38
		c2.89-2.26,6.52-3.62,10.45-3.62H149.3c9.35,0,17,7.65,17,17v86.78C166.3,114.19,158.65,121.84,149.3,121.84z"/>
	<polyline class="st0" points="6.61,4.68 81.88,77.69 159.74,4.68 	"/>
	<path class="st1" d="M83.18,61.45C80.19,48.84,69.52,42.93,63.7,44.94c-5.57,1.92-16.23,19.16-12.09,30.45
		c8.48,11.29,23.09,15.69,31.57,26.98c8.16-10.09,26.14-19.27,34.3-29.35c5.78-13.76-7.69-26.87-13-28.97
		C99.25,41.98,88.61,48.18,83.18,61.45z"/>
	<polygon class="st2" points="89.64,50.93 89.64,95.94 94.5,92.04 94.5,46.57 	"/>
	<polygon class="st2" points="94.5,73.01 84.78,66.96 84.78,81.51 	"/>
	<polygon class="st2" points="102.8,64.05 102.8,81.97 92.84,74.15 	"/>
	<g>
		<g>
			<path d="M58.38,22.5c0.57,0,1.08,0.16,1.52,0.49c0.45,0.33,0.8,0.79,1.06,1.39c0.26,0.6,0.38,1.31,0.38,2.12
				c0,0.83-0.13,1.55-0.38,2.15c-0.26,0.6-0.61,1.07-1.06,1.4c-0.45,0.33-0.96,0.49-1.52,0.49c-0.57,0-1.08-0.16-1.53-0.49
				s-0.8-0.79-1.06-1.4c-0.25-0.6-0.38-1.32-0.38-2.15c0-0.82,0.13-1.52,0.38-2.12c0.25-0.6,0.6-1.06,1.06-1.39
				C57.3,22.67,57.81,22.5,58.38,22.5z M58.38,24.11c-0.26,0-0.48,0.09-0.67,0.26c-0.19,0.18-0.34,0.44-0.44,0.8
				s-0.16,0.8-0.16,1.34c0,0.54,0.05,1,0.16,1.36c0.11,0.36,0.26,0.63,0.44,0.81c0.19,0.18,0.41,0.27,0.67,0.27
				c0.25,0,0.47-0.09,0.66-0.27c0.19-0.18,0.34-0.45,0.44-0.81c0.1-0.36,0.16-0.81,0.16-1.36c0-0.54-0.05-0.98-0.16-1.34
				c-0.1-0.36-0.25-0.62-0.44-0.8S58.63,24.11,58.38,24.11z M62.67,21.73h1.78v11.23h-1.78V21.73z"/>
			<path d="M70.1,22.9h1.74c0,0.86-0.07,1.67-0.22,2.45c-0.15,0.78-0.4,1.51-0.77,2.19c-0.36,0.68-0.87,1.32-1.51,1.91
				c-0.64,0.59-1.45,1.13-2.44,1.62l-0.92-1.38c0.79-0.38,1.45-0.8,1.97-1.25c0.52-0.45,0.94-0.93,1.26-1.46s0.54-1.1,0.68-1.72
				c0.14-0.62,0.2-1.3,0.2-2.05V22.9z M66.53,22.9h4.5v1.39h-4.5V22.9z M71.76,25.98h2.89v1.43h-2.89V25.98z M73.79,21.76h1.78
				v11.18h-1.78V21.76z"/>
			<path d="M80.58,25.99h10.07v1.37H80.58V25.99z M88.33,23.98v1.2l-6.67,0.26l-0.2-1.33L88.33,23.98z M81.65,27.9h7.94v3.06h-6.18
				v1.13h-1.75v-2.36h6.18v-0.49h-6.19V27.9z M81.66,31.49h8.3v1.33h-8.3V31.49z M81.79,22.11h7.06v1.37h-7.06V22.11z M87.79,22.11
				h1.74v1.02c0,0.5-0.01,1.01-0.03,1.54c-0.02,0.53-0.1,1.12-0.25,1.76l-1.74-0.16c0.14-0.62,0.23-1.18,0.25-1.67
				c0.02-0.49,0.03-0.98,0.03-1.47V22.11z"/>
			<path d="M92.16,22.36h5.17v3.53h-3.42v1.57h-1.74v-2.87h3.42v-0.84h-3.43V22.36z M92.17,26.81h1c0.74,0,1.41-0.01,1.99-0.02
				c0.58-0.01,1.13-0.04,1.64-0.09c0.51-0.05,1.03-0.11,1.55-0.19l0.19,1.39c-0.54,0.1-1.07,0.17-1.6,0.21s-1.1,0.07-1.71,0.08
				c-0.61,0.01-1.3,0.02-2.06,0.02h-1V26.81z M93.25,29.09h7.68v3.85h-1.78v-2.45h-5.9V29.09z M99.16,21.75h1.78v6.89h-1.78V21.75z"
				/>
			<path d="M104.47,32.01c-0.34,0-0.62-0.12-0.84-0.36c-0.22-0.24-0.34-0.54-0.34-0.89s0.11-0.64,0.34-0.88
				c0.22-0.23,0.5-0.35,0.84-0.35c0.35,0,0.64,0.12,0.86,0.35c0.22,0.23,0.33,0.52,0.33,0.88s-0.11,0.65-0.33,0.89
				C105.11,31.89,104.82,32.01,104.47,32.01z M103.85,28.71l-0.29-4.25l-0.06-1.79h1.96l-0.06,1.79l-0.28,4.25H103.85z"/>
		</g>
	</g>
</g>
</svg>
